<svg width="52" height="50" viewBox="0 0 52 50" fill="none" xmlns="http://www.w3.org/2000/svg">
<g clip-path="url(#clip0_550_2818)">
<rect width="52" height="50" rx="25" fill="#275553"/>
<path d="M12.1586 35.9023L12.0849 35.7566H11.3888L10.275 35.4815L9.30051 35.2063L7.21222 34.5185L5.95925 33.6931L1.36503 38.6455L-1.69779 41.672L-4.34295 44.0106L-7.12733 45.9365L-9.63328 47.037L-12 48M11.9457 43.1852L11.3888 42.2222L10.5535 41.672L8.60441 40.1587L6.93379 39.1958L5.40238 37.9577V36.582L5.95925 34.9312V33.6931M5.95925 33.6931L6.09847 35.0688L5.40238 36.582M12.1586 35.9023L12.6418 36.8571L13.1986 37.8201L14.3124 38.9206L15.7046 40.4339L17.0968 41.5344L12.1586 35.9023ZM29.9049 30.254L29.348 29.9788L28.7912 29.5661L27.8166 29.0159H26.146L24.7538 28.8783L23.0832 28.7407L20.8557 28.1905L20.2988 27.6402L19.8812 27.5026L19.1851 27.9153L18.3497 29.0159L17.6537 30.1164L17.0968 31.0794L16.5399 32.0423L15.7046 32.8677L14.5908 34.1058L13.4771 35.0688L12.3633 35.7566M19.8812 27.5026V28.1905L20.1596 28.6032L20.438 29.0159L20.7165 29.5661L21.1341 30.1164L21.2733 30.5291L21.5518 31.0794L21.8302 31.7672V32.1799L21.691 32.5926L21.5518 33.1429L21.1341 33.6931L20.438 34.5185L19.0458 36.1693L18.2105 37.545M29.9049 30.254L29.6265 31.0794L29.0696 32.1799C28.9768 32.3633 28.7633 32.7852 28.652 33.0053C28.5406 33.2254 28.2343 33.8307 28.0951 34.1058C27.9559 34.1975 27.6774 34.4085 27.6774 34.5185C27.6774 34.6286 27.1205 35.1146 26.8421 35.3439L25.7284 36.582L24.7538 37.6825M29.9049 30.254L31.1579 28.7407L33.6638 26.2646L35.7521 24.3386L37.9796 22.1376M24.7538 37.6825L23.0832 38.6455L22.3871 38.9206L21.9694 39.1958L24.7538 37.6825ZM37.9796 22.1376L37.2835 23.7884L37.0051 25.3016L36.5874 27.0899L36.309 28.4656M37.9796 22.1376L38.1188 22L38.3973 22.2751L38.8149 22.8254L39.3718 23.6508L40.3463 24.8889L41.4601 26.4021C41.7502 26.625 42.2551 27.0293 42.5739 27.3293M36.309 28.4656L35.8913 28.8783L35.4737 29.4286L34.9168 29.8413C34.6384 29.9788 34.619 29.9458 34.3599 30.1164C33.9423 30.3915 34.0815 30.254 33.9423 30.3915C33.9423 30.3915 33.8031 30.5291 33.6638 30.6667L33.3854 31.2169L32.9677 31.7672L32.8285 32.3175L32.6893 33.0053L32.5501 33.8307L32.4109 34.2434L32.1324 34.7937L31.854 35.3439L31.7148 36.0317L31.4363 36.4444L31.1579 37.1323M36.309 28.4656V29.291L36.5874 29.7037L37.0051 30.254L37.2835 30.5291L37.7012 31.0794C37.8404 31.2169 38.1188 31.5196 38.1188 31.6296C38.1188 31.7397 38.3045 32.2257 38.3973 32.455C38.4901 32.5009 38.6757 32.7577 38.6757 32.8677C38.6757 33.0053 38.6757 33.0053 38.8149 33.2804C38.8772 33.4035 39.2326 33.8307 39.2326 33.9683C39.2326 34.1058 39.3718 34.5185 39.3718 34.6561C39.3718 34.7937 39.6503 35.2063 39.6503 35.3439C39.6503 35.454 39.7431 35.5732 39.7895 35.619M49.3956 35.7566L47.3073 33.6931L46.0543 31.6296C45.4975 30.9877 44.3837 29.6762 44.3837 29.5661C44.3837 29.4286 42.9915 27.9153 42.8523 27.6402C42.8183 27.573 42.7141 27.4612 42.5739 27.3293M42.5739 27.3293L47.8642 25.0265L48.6995 25.7143L50.2309 27.6402L52.0407 30.5291L53.1545 33.0053C53.2009 33.2804 53.3772 33.8582 53.7114 33.9683C53.8677 34.0198 54.1928 34.2339 54.5467 34.4895M58.0272 37.6825L55.6604 35.3439C55.3888 35.1243 54.9491 34.7801 54.5467 34.4895M54.5467 34.4895L55.1036 34.1058L55.9389 33.6931L56.635 33.2804L57.7487 32.3175L59.0017 33.5556L59.9762 34.1058C60.3939 34.381 60.3939 34.381 60.6723 34.4895C61.2135 34.7006 61.5076 34.7937 61.7861 34.7937C61.9436 34.7937 62.7606 35.0229 63.1783 35.0688L64.4312 35.4815L66.5195 35.7566L68.4686 35.8942H70" stroke="white" stroke-linejoin="round"/>
<circle cx="17" cy="13" r="6.5" stroke="white"/>
</g>
<defs>
<clipPath id="clip0_550_2818">
<rect width="52" height="50" rx="25" fill="white"/>
</clipPath>
</defs>
</svg>
